<?xml version="1.0" encoding="UTF-8" standalone="no"?>
<!DOCTYPE svg PUBLIC "-//W3C//DTD SVG 1.1//EN" "http://www.w3.org/Graphics/SVG/1.1/DTD/svg11.dtd">
<svg width="100%" height="100%" viewBox="0 0 130 628" version="1.1" xmlns="http://www.w3.org/2000/svg" xmlns:xlink="http://www.w3.org/1999/xlink" xml:space="preserve" xmlns:serif="http://www.serif.com/" style="fill-rule:evenodd;clip-rule:evenodd;stroke-linecap:round;stroke-linejoin:round;stroke-miterlimit:1.5;">
    <g transform="matrix(1,0,0,1,-2942.570422,-108.518406)">
        <g transform="matrix(0.582041,0,0,0.582041,2733.292307,-346.870396)">
            <circle cx="439.957" cy="873.101" r="19.406" style="fill:white;"/>
        </g>
        <g transform="matrix(0.582041,0,0,0.582041,2804.297433,-172.961653)">
            <circle cx="439.957" cy="873.101" r="19.406" style="fill:white;"/>
        </g>
        <g transform="matrix(0.582041,0,0,0.582041,2804.297433,0.947091)">
            <circle cx="439.957" cy="873.101" r="19.406" style="fill:white;"/>
        </g>
        <g transform="matrix(0.582041,0,0,0.582041,2733.292307,174.855835)">
            <circle cx="439.957" cy="873.101" r="19.406" style="fill:white;"/>
        </g>
        <g transform="matrix(0.664758,0,0,0.884106,854.150238,-520.220578)">
            <path d="M3145.977,714.43C3257.318,791.615 3330.292,920.317 3330.292,1065.928C3330.292,1211.539 3257.318,1340.241 3145.977,1417.426" style="fill:none;stroke:white;stroke-width:7.4px;"/>
        </g>
    </g>
</svg>
